<?xml version="1.0" standalone="no"?>
<!DOCTYPE svg PUBLIC "-//W3C//DTD SVG 20010904//EN"
 "http://www.w3.org/TR/2001/REC-SVG-20010904/DTD/svg10.dtd">
<svg version="1.0" xmlns="http://www.w3.org/2000/svg"
 width="797pt" height="797pt" viewBox="0 0 797 797"
 preserveAspectRatio="xMidYMid meet">
<circle r="1e5" fill="white"/>
<g transform="translate(0,797) scale(0.1,-0.1)"
fill="#000000" stroke="none">
<path d="M5025 7893 c-493 -23 -845 -93 -1090 -215 -172 -86 -377 -244 -519
-399 -206 -226 -363 -540 -487 -974 -23 -82 -47 -155 -53 -162 -6 -6 -81 -33
-166 -59 -273 -83 -363 -131 -448 -238 -31 -39 -100 -137 -152 -216 -52 -80
-96 -147 -97 -149 -4 -5 -228 62 -386 116 -335 114 -501 256 -588 500 -34 93
-37 335 -9 663 27 318 23 465 -14 612 -39 154 -103 269 -219 395 -81 88 -73
86 -237 52 -79 -16 -145 -31 -146 -32 -7 -8 -87 -271 -107 -352 -92 -366 -123
-672 -114 -1129 9 -472 37 -664 126 -849 78 -162 178 -293 363 -472 177 -173
354 -312 696 -544 l183 -125 -7 -95 c-13 -162 -10 -371 5 -431 20 -80 47 -138
91 -196 67 -90 223 -155 545 -229 88 -21 163 -40 166 -44 4 -3 14 -118 24
-256 48 -720 109 -1044 261 -1389 49 -110 63 -180 144 -697 67 -433 114 -663
177 -879 l28 -95 2488 -3 2487 -2 0 3514 0 3513 -50 274 c-42 229 -116 579
-123 585 -2 1 -460 -44 -463 -46 0 0 -79 -163 -174 -362 -96 -200 -176 -365
-178 -368 -7 -10 -258 126 -485 262 -420 253 -602 350 -794 424 -240 93 -373
112 -678 97z m2536 -933 c-16 -362 -49 -589 -122 -815 -42 -131 -166 -342
-332 -562 -126 -168 -359 -392 -576 -556 -217 -163 -549 -350 -773 -436 l-78
-29 -44 81 c-52 96 -258 519 -254 522 2 2 80 10 173 19 323 30 560 93 792 210
264 133 449 298 614 545 161 240 254 489 369 986 90 392 139 563 206 725 l19
45 8 -245 c6 -155 5 -335 -2 -490z m-2166 657 c130 -37 228 -73 330 -124 109
-54 325 -176 325 -183 0 -8 -289 -189 -435 -273 -187 -107 -416 -225 -599
-307 l-158 -71 -191 -20 c-105 -10 -194 -22 -197 -26 -4 -5 -23 -66 -43 -137
-20 -71 -39 -131 -42 -134 -2 -3 -40 26 -82 64 -309 277 -333 296 -340 278 -4
-10 -25 -77 -48 -149 l-42 -130 -124 3 c-145 3 -258 18 -314 40 -60 24 -135
72 -135 87 0 35 108 297 146 355 108 164 284 342 447 451 229 153 509 247 837
279 63 7 140 16 170 20 30 5 134 7 230 5 150 -2 188 -7 265 -28z m-4695 -372
c5 -127 10 -342 10 -480 0 -607 67 -868 278 -1096 174 -187 392 -308 790 -438
136 -44 309 -99 386 -123 76 -23 140 -48 143 -54 5 -13 -62 -430 -74 -460 -3
-8 -46 -46 -96 -84 l-90 -68 -51 18 c-28 10 -104 41 -169 69 -566 248 -1076
686 -1263 1086 -73 156 -117 455 -118 795 0 315 26 529 99 817 31 119 41 143
82 199 26 35 51 60 55 56 4 -4 12 -111 18 -237z m4290 -1339 c0 -1 -41 -101
-90 -221 -50 -120 -89 -224 -86 -231 2 -6 59 -56 126 -110 90 -73 120 -103
117 -116 -3 -10 -42 -80 -86 -156 l-81 -139 -183 -12 c-100 -7 -193 -14 -207
-17 -18 -4 -44 -33 -97 -112 -39 -59 -164 -244 -278 -412 -113 -168 -210 -311
-214 -319 -7 -12 -39 -6 -182 33 -96 27 -316 86 -489 132 -173 47 -323 87
-333 90 -32 10 -301 480 -467 815 l-92 186 11 69 c7 38 19 99 27 135 l15 66
382 6 c210 3 452 11 537 17 85 5 315 14 510 20 463 12 526 25 945 200 174 72
215 86 215 76z m97 -1503 c-57 -65 -137 -154 -176 -198 -39 -43 -71 -82 -71
-85 0 -4 12 -12 26 -19 30 -13 37 -1 -66 -119 -35 -40 -61 -74 -59 -76 2 -2
28 -24 56 -49 l52 -46 -55 -47 c-30 -26 -56 -45 -58 -43 -2 2 -23 83 -46 179
-58 234 -60 316 -11 413 37 73 102 147 152 172 46 24 107 32 242 34 l118 1
-104 -117z m-6 -381 c11 -5 -9 -27 -80 -87 l-96 -79 55 63 c30 34 63 74 73 87
20 25 23 27 48 16z m-576 -1992 c36 29 68 51 70 49 2 -2 20 -121 41 -263 l37
-260 -79 -72 c-43 -40 -106 -89 -139 -109 -105 -63 -118 -64 -550 -67 -437 -2
-472 2 -613 69 -84 40 -171 121 -214 199 l-27 49 53 140 c85 226 110 278 143
295 20 10 60 15 143 14 104 0 131 -4 275 -43 266 -72 230 -72 380 -4 l129 60
143 -55 142 -54 66 52z"/>
<path d="M4068 1742 l-188 -76 -232 23 c-317 32 -402 39 -410 35 -8 -5 22 -94
50 -150 27 -52 81 -100 129 -114 65 -19 205 -24 279 -10 98 18 225 61 329 112
118 57 395 210 395 218 0 4 -33 13 -72 20 -40 7 -77 14 -83 16 -5 1 -94 -32
-197 -74z"/>
</g>
</svg>
